<svg xmlns="http://www.w3.org/2000/svg" width="224.88" viewBox="0 0 224.88 30" height="30" version="1.0"><g fill="#FFF"><g><g><path d="M 17.28125 -7.890625 C 17 -7.582031 14.941406 -4.835938 12.320312 -4.835938 C 9.359375 -4.835938 7.769531 -7.613281 7.769531 -10.699219 C 7.769531 -14.101562 9.234375 -16.875 11.480469 -16.875 C 13.695312 -16.875 14.691406 -14.972656 14.785156 -12.945312 L 20.371094 -12.945312 L 20.371094 -21.804688 L 15.472656 -21.804688 L 14.753906 -20.058594 C 14.472656 -20.433594 13.070312 -22.179688 9.953125 -22.179688 C 5.863281 -22.179688 0.46875 -17.875 0.46875 -10.699219 C 0.46875 -3.742188 4.867188 0.5 11.480469 0.5 C 15.566406 0.5 18.8125 -1.558594 20.933594 -3.898438 Z M 17.28125 -7.890625" transform="translate(22.965 25.175)"/></g></g></g><g fill="#FFF"><g><g><path d="M 0.78125 -21.804688 L 0.78125 -17.6875 L 2.496094 -17.6875 L 2.496094 -4.117188 L 0.78125 -4.117188 L 0.78125 0 L 10.886719 0 L 10.886719 -4.117188 L 8.953125 -4.117188 L 8.953125 -8.828125 L 14.878906 -8.828125 L 14.878906 -4.117188 L 13.039062 -4.117188 L 13.039062 0 L 23.179688 0 L 23.179688 -4.117188 L 21.367188 -4.117188 L 21.367188 -17.6875 L 23.179688 -17.6875 L 23.179688 -21.804688 L 13.039062 -21.804688 L 13.039062 -17.6875 L 14.878906 -17.6875 L 14.878906 -12.976562 L 8.953125 -12.976562 L 8.953125 -17.6875 L 10.886719 -17.6875 L 10.886719 -21.804688 Z M 0.78125 -21.804688" transform="translate(44.36 25.175)"/></g></g></g><g fill="#FFF"><g><g><path d="M 25.207031 0 L 25.207031 -4.085938 L 23.023438 -4.085938 L 17.5 -21.804688 L 5.523438 -21.804688 L 5.523438 -17.78125 L 6.800781 -17.78125 L 2.589844 -4.085938 L 0.46875 -4.085938 L 0.46875 0 L 10.386719 0 L 10.386719 -4.085938 L 7.953125 -4.085938 L 8.609375 -6.207031 L 15.003906 -6.207031 L 15.660156 -4.085938 L 12.695312 -4.085938 L 12.695312 0 Z M 9.765625 -9.953125 L 11.792969 -16.6875 L 13.851562 -9.953125 Z M 9.765625 -9.953125" transform="translate(68.31 25.175)"/></g></g></g><g fill="#FFF"><g><g><path d="M 21.398438 -21.804688 L 0.46875 -21.804688 L 0.46875 -13.695312 L 5.054688 -13.695312 L 5.054688 -17.6875 L 7.738281 -17.6875 L 7.738281 -4.148438 L 5.179688 -4.148438 L 5.179688 0 L 16.78125 0 L 16.78125 -4.148438 L 14.195312 -4.148438 L 14.195312 -17.6875 L 16.8125 -17.6875 L 16.8125 -13.695312 L 21.398438 -13.695312 Z M 21.398438 -21.804688" transform="translate(93.978 25.175)"/></g></g></g><g fill="#FFF"><g><g><path d="M 24.957031 -17.984375 L 24.957031 -22.054688 L 15.460938 -22.054688 L 15.460938 -17.984375 L 17.605469 -17.984375 L 17.605469 -10.476562 L 9.875 -22.054688 L 0.820312 -22.054688 L 0.820312 -17.984375 L 2.648438 -17.984375 L 2.648438 -4.070312 L 0.789062 -4.070312 L 0.789062 0 L 10.476562 0 L 10.476562 -4.070312 L 8.046875 -4.070312 L 8.046875 -12.019531 L 16.089844 0 L 22.875 0 L 22.875 -17.984375 Z M 24.957031 -17.984375" transform="translate(119.41 25.865)"/></g></g></g><g fill="#FFF"><g><g><path d="M 0.789062 -22.054688 L 0.789062 -17.890625 L 2.777344 -17.890625 L 2.777344 -4.195312 L 0.789062 -4.195312 L 0.789062 0 L 19.8125 0 L 19.8125 -7.128906 L 14.355469 -7.128906 L 14.355469 -4.195312 L 9.308594 -4.195312 L 9.308594 -9.339844 L 15.300781 -9.339844 L 15.300781 -13.535156 L 9.308594 -13.535156 L 9.308594 -17.890625 L 14.355469 -17.890625 L 14.355469 -15.082031 L 19.8125 -15.082031 L 19.8125 -22.054688 Z M 0.789062 -22.054688" transform="translate(149.572 25.865)"/></g></g></g><g fill="#FFF"><g><g><path d="M 21.644531 -22.054688 L 0.472656 -22.054688 L 0.472656 -13.851562 L 5.109375 -13.851562 L 5.109375 -17.890625 L 7.824219 -17.890625 L 7.824219 -4.195312 L 5.238281 -4.195312 L 5.238281 0 L 16.972656 0 L 16.972656 -4.195312 L 14.355469 -4.195312 L 14.355469 -17.890625 L 17.007812 -17.890625 L 17.007812 -13.851562 L 21.644531 -13.851562 Z M 21.644531 -22.054688" transform="translate(174.592 25.865)"/></g></g></g></svg>