<svg xmlns="http://www.w3.org/2000/svg" width="117.75" viewBox="0 0 117.75 30" height="30" version="1.0"><g fill="#E6212A"><g><g><path d="M 10.050781 -4.589844 C 9.886719 -4.40625 8.6875 -2.8125 7.164062 -2.8125 C 5.441406 -2.8125 4.515625 -4.425781 4.515625 -6.222656 C 4.515625 -8.199219 5.371094 -9.8125 6.675781 -9.8125 C 7.964844 -9.8125 8.542969 -8.707031 8.597656 -7.527344 L 11.84375 -7.527344 L 11.84375 -12.679688 L 8.996094 -12.679688 L 8.582031 -11.664062 C 8.417969 -11.882812 7.601562 -12.898438 5.785156 -12.898438 C 3.410156 -12.898438 0.273438 -10.394531 0.273438 -6.222656 C 0.273438 -2.175781 2.828125 0.289062 6.675781 0.289062 C 9.050781 0.289062 10.9375 -0.90625 12.171875 -2.265625 Z M 10.050781 -4.589844" transform="translate(6.38 17.692)"/></g></g></g><g fill="#E6212A"><g><g><path d="M 0.453125 -12.679688 L 0.453125 -10.285156 L 1.453125 -10.285156 L 1.453125 -2.394531 L 0.453125 -2.394531 L 0.453125 0 L 6.332031 0 L 6.332031 -2.394531 L 5.207031 -2.394531 L 5.207031 -5.132812 L 8.652344 -5.132812 L 8.652344 -2.394531 L 7.582031 -2.394531 L 7.582031 0 L 13.476562 0 L 13.476562 -2.394531 L 12.425781 -2.394531 L 12.425781 -10.285156 L 13.476562 -10.285156 L 13.476562 -12.679688 L 7.582031 -12.679688 L 7.582031 -10.285156 L 8.652344 -10.285156 L 8.652344 -7.546875 L 5.207031 -7.546875 L 5.207031 -10.285156 L 6.332031 -10.285156 L 6.332031 -12.679688 Z M 0.453125 -12.679688" transform="translate(18.823 17.692)"/></g></g></g><g fill="#E6212A"><g><g><path d="M 14.65625 0 L 14.65625 -2.375 L 13.386719 -2.375 L 10.175781 -12.679688 L 3.210938 -12.679688 L 3.210938 -10.339844 L 3.953125 -10.339844 L 1.503906 -2.375 L 0.273438 -2.375 L 0.273438 0 L 6.039062 0 L 6.039062 -2.375 L 4.625 -2.375 L 5.007812 -3.609375 L 8.726562 -3.609375 L 9.105469 -2.375 L 7.382812 -2.375 L 7.382812 0 Z M 5.679688 -5.785156 L 6.855469 -9.703125 L 8.054688 -5.785156 Z M 5.679688 -5.785156" transform="translate(32.753 17.692)"/></g></g></g><g fill="#E6212A"><g><g><path d="M 12.445312 -12.679688 L 0.273438 -12.679688 L 0.273438 -7.964844 L 2.9375 -7.964844 L 2.9375 -10.285156 L 4.5 -10.285156 L 4.5 -2.414062 L 3.011719 -2.414062 L 3.011719 0 L 9.757812 0 L 9.757812 -2.414062 L 8.253906 -2.414062 L 8.253906 -10.285156 L 9.777344 -10.285156 L 9.777344 -7.964844 L 12.445312 -7.964844 Z M 12.445312 -12.679688" transform="translate(47.68 17.692)"/></g></g></g><g fill="#A6A6A6"><g><g><path d="M 14.519531 -10.460938 L 14.519531 -12.828125 L 8.992188 -12.828125 L 8.992188 -10.460938 L 10.242188 -10.460938 L 10.242188 -6.09375 L 5.746094 -12.828125 L 0.476562 -12.828125 L 0.476562 -10.460938 L 1.542969 -10.460938 L 1.542969 -2.367188 L 0.457031 -2.367188 L 0.457031 0 L 6.09375 0 L 6.09375 -2.367188 L 4.679688 -2.367188 L 4.679688 -6.992188 L 9.359375 0 L 13.308594 0 L 13.308594 -10.460938 Z M 14.519531 -10.460938" transform="translate(61.233 18.364)"/></g></g></g><g fill="#A6A6A6"><g><g><path d="M 0.457031 -12.828125 L 0.457031 -10.40625 L 1.613281 -10.40625 L 1.613281 -2.441406 L 0.457031 -2.441406 L 0.457031 0 L 11.527344 0 L 11.527344 -4.148438 L 8.351562 -4.148438 L 8.351562 -2.441406 L 5.414062 -2.441406 L 5.414062 -5.433594 L 8.902344 -5.433594 L 8.902344 -7.875 L 5.414062 -7.875 L 5.414062 -10.40625 L 8.351562 -10.40625 L 8.351562 -8.773438 L 11.527344 -8.773438 L 11.527344 -12.828125 Z M 0.457031 -12.828125" transform="translate(78.775 18.364)"/></g></g></g><g fill="#A6A6A6"><g><g><path d="M 12.589844 -12.828125 L 0.273438 -12.828125 L 0.273438 -8.058594 L 2.972656 -8.058594 L 2.972656 -10.40625 L 4.550781 -10.40625 L 4.550781 -2.441406 L 3.046875 -2.441406 L 3.046875 0 L 9.875 0 L 9.875 -2.441406 L 8.351562 -2.441406 L 8.351562 -10.40625 L 9.894531 -10.40625 L 9.894531 -8.058594 L 12.589844 -8.058594 Z M 12.589844 -12.828125" transform="translate(93.327 18.364)"/></g></g></g></svg>